#!OML:ASF I:\Actors\actors\Patient Classification 1\Patient 1\Session 1\Subject1.ASF
:FULLY-SPECIFIED
:DEGREES
303
root 0.579733 17.5257 9.52201 9.05639 -1.85623 -9.57916
lowerback 1.78712 2.72918 7.12806
upperback -7.70911 4.25422 1.39342
thorax -8.77227 1.64147 -2.87672
lowerneck -14.9225 -1.03925 1.0327
upperneck 28.2363 -3.23498 4.82198
head 11.7933 -0.718101 1.15203
rclavicle -5.91384e-015 1.94809e-014
rhumerus 7.43892 53.062 -70.9344
rradius 92.4524
rwrist -1.78944
rhand 14.4601 -62.3679
rfingers 7.12502
rthumb 39.3432 -87.7887
lclavicle -5.91384e-015 1.94809e-014
lhumerus -34.4054 -20.4275 94.8176
lradius 100.275
lwrist -24.0547
lhand -19.3785 -25.8603
lfingers 7.12502
lthumb 6.93975 4.00593
rfemur -7.49492 17.8085 26.3352
rtibia 11.3742
rfoot -14.726 -20.1677
rtoes -1.4808
lfemur 3.27993 -34.7271 -9.69705
ltibia -2.24561
lfoot -19.3279 45.0366
ltoes 5.98508
304
root 0.582553 17.522 9.505 9.13138 -2.91048 -9.43157
lowerback 1.99176 2.98552 7.02301
upperback -7.77073 4.60754 1.30522
thorax -8.92545 1.81044 -2.9543
lowerneck -14.9327 -1.02168 1.02983
upperneck 28.3958 -3.1983 4.75174
head 11.8552 -0.707508 1.13358
rclavicle -4.42296e-015 2.74323e-014
rhumerus 8.23006 53.4862 -71.5691
rradius 91.7365
rwrist -0.940286
rhand 13.1049 -62.3838
rfingers 7.12502
rthumb 38.0649 -88.1653
lclavicle -4.42296e-015 2.74323e-014
lhumerus -34.5459 -20.4208 94.7098
lradius 100.372
lwrist -23.9136
lhand -19.1338 -25.4579
lfingers 7.12502
lthumb 7.17601 4.40043
rfemur -7.98023 18.0776 25.9979
rtibia 11.8941
rfoot -14.6477 -19.4521
rtoes -2.02273
lfemur 3.69469 -34.9014 -10.231
ltibia -2.33524
lfoot -20.5959 45.9076
ltoes 7.58128
305
root 0.582024 17.5161 9.47206 9.11244 -4.23885 -8.71101
lowerback 2.5349 3.3187 6.32373
upperback -7.86278 5.0348 0.98217
thorax -9.32478 2.03803 -2.98785
lowerneck -14.8725 -1.04745 1.04133
upperneck 28.4345 -3.26064 4.81798
head 11.8613 -0.726326 1.1479
rclavicle 1.27222e-014 2.18663e-014
rhumerus 8.93894 53.6995 -72.5073
rradius 90.6659
rwrist -0.0621904
rhand 11.567 -62.2219
rfingers 7.12502
rthumb 36.6111 -88.3859
lclavicle 1.27222e-014 2.18663e-014
lhumerus -34.6629 -20.4906 94.5544
lradius 100.473
lwrist -23.7684
lhand -19.0314 -25.3903
lfingers 7.12502
lthumb 7.2748 4.4646
rfemur -8.59167 18.6537 24.9424
rtibia 12.5333
rfoot -14.5943 -18.8395
rtoes -2.0838
lfemur 3.96521 -34.9068 -11.389
ltibia -2.18698
lfoot -21.8213 46.7547
ltoes 9.04489
306
root 0.581843 17.5126 9.46633 9.26699 -5.18102 -8.64746
lowerback 2.41877 3.59968 6.30901
upperback -7.9078 5.39351 0.858837
thorax -9.26105 2.21131 -3.13406
lowerneck -14.7264 -1.04993 1.11654
upperneck 28.339 -3.30078 4.89988
head 11.7964 -0.730713 1.15884
rclavicle -6.41081e-015 -2.78299e-015
rhumerus 9.54364 53.7175 -73.5356
rradius 89.2756
rwrist 0.976308
rhand 10.6327 -61.8349
rfingers 7.12502
rthumb 35.7262 -88.2182
lclavicle -6.41081e-015 -2.78299e-015
lhumerus -34.7826 -20.4569 94.4862
lradius 100.557
lwrist -23.7932
lhand -19.1529 -25.9105
lfingers 7.12502
lthumb 7.15756 3.94848
rfemur -8.99935 18.9915 24.7248
rtibia 12.8341
rfoot -14.5428 -18.2113
rtoes -1.90116
lfemur 4.1072 -34.5889 -11.6336
ltibia -2.19172
lfoot -22.5023 47.1946
ltoes 9.77169
307
root 0.581572 17.5108 9.46266 9.34913 -5.99015 -8.55944
lowerback 2.34479 3.82977 6.34751
upperback -7.93047 5.6869 0.698077
thorax -9.19425 2.34759 -3.34421
lowerneck -14.6141 -1.01168 1.1965
upperneck 28.2408 -3.2925 5.01172
head 11.7369 -0.70862 1.18693
rclavicle -2.41523e-014 5.64548e-014
rhumerus 9.97219 53.5346 -74.7278
rradius 87.7297
rwrist 2.19643
rhand 10.218 -61.3467
rfingers 7.12502
rthumb 35.3331 -87.8243
lclavicle -2.41523e-014 5.64548e-014
lhumerus -34.9441 -20.3838 94.3761
lradius 100.733
lwrist -23.8918
lhand -19.2968 -26.5451
lfingers 7.12502
lthumb 7.01865 3.31852
rfemur -9.24087 19.2493 24.5194
rtibia 12.9875
rfoot -14.4593 -17.6635
rtoes -1.92918
lfemur 4.27009 -34.2048 -11.9021
ltibia -2.18524
lfoot -23.0726 47.437
ltoes 10.5496
308
root 0.579269 17.5115 9.46676 9.44643 -6.49969 -8.61621
lowerback 2.11561 3.96497 6.56499
upperback -7.9209 5.85434 0.593106
thorax -9.0017 2.41803 -3.56707
lowerneck -14.5851 -0.969198 1.29821
upperneck 28.1959 -3.2567 5.01303
head 11.7116 -0.683371 1.17444
rclavicle 9.44227e-016 1.03368e-014
rhumerus 10.2873 53.3218 -75.811
rradius 86.2478
rwrist 3.31777
rhand 9.6881 -61.1095
rfingers 7.12502
rthumb 34.8305 -87.705
lclavicle 9.44227e-016 1.03368e-014
lhumerus -35.1155 -20.1357 94.2826
lradius 100.99
lwrist -24.0045
lhand -19.3512 -27.0291
lfingers 7.12502
lthumb 6.96609 2.83623
rfemur -9.27877 19.4025 24.5474
rtibia 12.8668
rfoot -14.3216 -17.3054
rtoes -2.17954
lfemur 4.32368 -33.6749 -11.8789
ltibia -2.21462
lfoot -23.0734 47.3968
ltoes 10.6791
